<?xml version="1.0" encoding="utf-8"?>
<svg version="1.1" xmlns="http://www.w3.org/2000/svg" xmlns:xlink="http://www.w3.org/1999/xlink" x="0px"
	 y="0px" viewBox="0 0 128 128" style="enable-background:new 0 0 128 128;" xml:space="preserve">
<style type="text/css">
	.st0{fill:#FFFFFF;}
	.st1{fill:none;}
</style>
<path class="st0" d="M97.5,44.8c-4.9-6.2-13.2-8-20-4.8c-3.8-3.9-9-5.6-14.1-4.9V16.8C63.4,7.5,56,0,46.9,0
	c-9.1,0-16.6,7.5-16.6,16.8V57c-5-1.9-10.8-1.3-15.5,2.2c-7.3,5.4-8.9,15.8-3.6,23.3L38.6,121c3.1,4.4,8.1,7,13.4,7h44.6
	c7.7,0,14.4-5.4,16.1-12.9l6.9-29.7c0.3-1.2,0.4-2.5,0.4-3.8v-21C120,48.8,108.3,40.7,97.5,44.8z"/>
<g>
	<path class="st1" d="M98.9,60.5c0,2.2-1.8,4-4,4h-1.7c-2.2,0-4-1.8-4-4v-5.3c0-6.3-9.1-6.3-9.1,0v5.3c0,2.2-1.8,4-4,4h-1.7
		c-2.2,0-4-1.8-4-4v-8.8c0-6.3-9.1-6.3-9.1,0v8.8c0,2.2-1.8,4-4,4h-1.7c-2.2,0-4-1.8-4-4V16.8c0-6.3-9.1-6.3-9.1,0v60.4
		c0,3.9-5,5.5-7.3,2.3l-6.8-9.5c-3.6-5.1-11,0.6-7.3,5.7l27.4,38.5c0.9,1.2,2.2,1.9,3.7,1.9h44.6c2.1,0,4-1.5,4.4-3.6l6.9-29.8
		c0.1-0.4,0.1-0.7,0.1-1.1v-21C108,54.2,98.9,54.2,98.9,60.5z M60.5,100c0,2.2-1.6,4-3.5,4h-1.5c-1.9,0-3.5-1.8-3.5-4V76
		c0-2.2,1.6-4,3.5-4H57c1.9,0,3.5,1.8,3.5,4V100z M79.4,100c0,2.2-1.6,4-3.5,4h-1.5c-1.9,0-3.5-1.8-3.5-4V76c0-2.2,1.6-4,3.5-4h1.5
		c1.9,0,3.5,1.8,3.5,4V100z M98.3,100c0,2.2-1.6,4-3.5,4h-1.5c-1.9,0-3.5-1.8-3.5-4V76c0-2.2,1.6-4,3.5-4h1.5c1.9,0,3.5,1.8,3.5,4
		V100z"/>
	<path d="M97.5,44.8c-4.9-6.2-13.2-8-20-4.8c-3.8-3.9-9-5.6-14.1-4.9V16.8C63.4,7.5,56,0,46.9,0c-9.1,0-16.6,7.5-16.6,16.8V57
		c-5-1.9-10.8-1.3-15.5,2.2c-7.3,5.4-8.9,15.8-3.6,23.3L38.6,121c3.1,4.4,8.1,7,13.4,7h44.6c7.7,0,14.4-5.4,16.1-12.9l6.9-29.7
		c0.3-1.2,0.4-2.5,0.4-3.8v-21C120,48.8,108.3,40.7,97.5,44.8z M108,81.5c0,0.4,0,0.7-0.1,1.1l-6.9,29.8c-0.5,2.1-2.3,3.6-4.4,3.6
		H52c-1.4,0-2.8-0.7-3.7-1.9L20.9,75.6c-3.6-5.1,3.7-10.7,7.3-5.7l6.8,9.5c2.2,3.2,7.3,1.6,7.3-2.3V16.8c0-6.3,9.1-6.3,9.1,0v43.8
		c0,2.2,1.8,4,4,4h1.7c2.2,0,4-1.8,4-4v-8.8c0-6.3,9.1-6.3,9.1,0v8.8c0,2.2,1.8,4,4,4H76c2.2,0,4-1.8,4-4v-5.3c0-6.3,9.1-6.3,9.1,0
		v5.3c0,2.2,1.8,4,4,4h1.7c2.2,0,4-1.8,4-4c0-6.3,9.1-6.3,9.1,0V81.5z"/>
	<path d="M57,72h-1.5c-1.9,0-3.5,1.8-3.5,4v24c0,2.2,1.6,4,3.5,4H57c1.9,0,3.5-1.8,3.5-4V76C60.5,73.8,59,72,57,72z"/>
	<path d="M94.8,72h-1.5c-1.9,0-3.5,1.8-3.5,4v24c0,2.2,1.6,4,3.5,4h1.5c1.9,0,3.5-1.8,3.5-4V76C98.3,73.8,96.7,72,94.8,72z"/>
	<path d="M75.9,72h-1.5c-1.9,0-3.5,1.8-3.5,4v24c0,2.2,1.6,4,3.5,4h1.5c1.9,0,3.5-1.8,3.5-4V76C79.4,73.8,77.8,72,75.9,72z"/>
</g>
</svg>
